<?xml version="1.0" encoding="utf-8"?>
<!DOCTYPE svg PUBLIC "-//W3C//DTD SVG 1.1//EN" "http://www.w3.org/Graphics/SVG/1.1/DTD/svg11.dtd">
<svg xmlns="http://www.w3.org/2000/svg" xmlns:xlink="http://www.w3.org/1999/xlink" version="1.1" viewBox="0 0 512 512" enable-background="new 0 0 512 512" width="512px" height="512px">
  <g>
    <g>
      <path d="m393.4,125.3c-12.3-65.2-69.8-114.3-137.4-114.3-67.6,0-125.1,49.1-137.4,114.3-62.3,14.8-107.6,70.9-107.6,136.6 0,14.8 2.3,29.4 6.8,43.3 10.3,31.8 39.6,53.2 72.9,53.2h27.3c11.3,0 20.4-9.1 20.4-20.4 0-11.3-9.1-20.4-20.4-20.4h-27.3c-15.5,0-29.2-10-34-24.9-3.2-9.9-4.8-20.2-4.8-30.7 0-50.5 37.6-93 87.5-98.8 9.7-1.1 17.3-9.1 18-18.8 3.7-51.8 47-92.4 98.7-92.4 51.7,0 95,40.6 98.7,92.4 0.7,9.8 8.2,17.7 18,18.8 49.9,5.9 87.5,48.4 87.5,98.8 0,10.5-1.6,20.9-4.8,30.8-4.8,14.9-18.5,24.9-34,24.9h-125.7c-11.3,0-20.4,9.1-20.4,20.4 0,11.3 9.1,20.4 20.4,20.4h125.6c33.3,0 62.6-21.4 72.9-53.2 4.5-14 6.8-28.5 6.8-43.3-0.1-65.8-45.4-121.9-107.7-136.7z" fill="#2b3e50"/>
      <path d="m261.7,398.1l-34.8,34v-183.6c0-11.3-9.1-20.4-20.4-20.4s-20.4,9.1-20.4,20.4v183.5l-34.8-34c-8.1-7.9-21-7.7-28.9,0.3-7.9,8.1-7.7,21 0.3,28.9l69.4,67.9c4,3.9 9.1,5.8 14.3,5.8 5.2,0 10.3-1.9 14.3-5.8l69.4-67.9c8.1-7.9 8.2-20.8 0.3-28.9-7.7-7.9-20.6-8.1-28.7-0.2z" fill="#2b3e50"/>
    </g>
  </g>
</svg>
