<?xml version="1.0" encoding="iso-8859-1"?>
<!-- Generator: Adobe Illustrator 16.0.0, SVG Export Plug-In . SVG Version: 6.00 Build 0)  -->
<!DOCTYPE svg PUBLIC "-//W3C//DTD SVG 1.1//EN" "http://www.w3.org/Graphics/SVG/1.1/DTD/svg11.dtd">
<svg xmlns="http://www.w3.org/2000/svg" xmlns:xlink="http://www.w3.org/1999/xlink" version="1.1" id="Capa_1" x="0px" y="0px" width="512px" height="512px" viewBox="0 0 75.446 75.447" style="enable-background:new 0 0 75.446 75.447;" xml:space="preserve">
<g>
	<path d="M72.762,10.042H2.686C1.204,10.042,0,11.246,0,12.726v46.715c0,1.487,1.206,2.688,2.686,2.688h48.382v-2.194H49.44v-3.176   H5.372V15.413h64.702v32.522h0.099v10.237H68.66v3.956h4.102c1.482,0,2.685-1.202,2.685-2.683V12.728   C75.444,11.243,74.244,10.042,72.762,10.042z M72.762,39.431c-0.931,0-1.69-0.752-1.69-1.687c0-0.927,0.755-1.684,1.69-1.684   c0.929,0,1.686,0.754,1.686,1.684S73.688,39.431,72.762,39.431z M65.223,44.559h0.29H67.1V17.747H8.495v36.79h39.488v-0.413h-1.576   v-2.096h-1.277v-0.603h-6.144v-1.868h6.144v-1.856h0.123h1.533h2.5v0.704h1.487v-2.623H38.985v-1.87h11.788v-3.769H38.985v-1.87   h11.788v-2.265h1.576v-1.507H11.74v-1.867h51.961v1.867h-8.018v1.509h1.398v2.265h6.546v1.873h-6.546v1.802h2.736v1.567h1.273   h0.234h2.749v1.042H65.223L65.223,44.559z M36.455,51.42H11.817v-1.865h24.638V51.42z M11.802,38.273h24.65v1.87h-24.65V38.273z    M11.802,43.912h24.65v1.87h-24.65V43.912z M28.17,21.222c-0.376,0.049-0.626,0.109-0.755,0.187   c-0.127,0.077-0.229,0.201-0.299,0.369c-0.069,0.173-0.107,0.47-0.107,0.885v7.354h-0.223l-5.975-7.354v5.616   c0,0.506,0.115,0.852,0.347,1.03c0.23,0.176,0.5,0.261,0.798,0.261h0.21v0.243h-3.134v-0.24c0.483-0.005,0.827-0.101,1.016-0.297   c0.194-0.196,0.288-0.531,0.288-0.999v-6.239l-0.189-0.234c-0.187-0.233-0.35-0.388-0.493-0.465   c-0.145-0.069-0.351-0.114-0.622-0.123v-0.234h3.134l4.359,5.479v-3.8c0-0.529-0.075-0.89-0.231-1.077   c-0.205-0.25-0.555-0.369-1.048-0.364v-0.238h2.922L28.17,21.222L28.17,21.222z M35.983,29.816h-7.638v-0.244h0.294   c0.255,0,0.463-0.048,0.622-0.139c0.109-0.057,0.196-0.162,0.259-0.312c0.047-0.105,0.068-0.377,0.068-0.822v-5.811   c0-0.401-0.009-0.646-0.033-0.736c-0.042-0.149-0.123-0.269-0.241-0.35c-0.165-0.124-0.39-0.183-0.677-0.183h-0.294v-0.236h7.397   v2.609h-0.25c-0.124-0.639-0.301-1.096-0.53-1.374c-0.229-0.277-0.551-0.482-0.967-0.614c-0.245-0.08-0.703-0.12-1.369-0.12H31.71   v3.595h0.176c0.561,0,0.965-0.172,1.217-0.528c0.252-0.355,0.414-0.872,0.481-1.561h0.25v4.625h-0.25   c-0.049-0.502-0.159-0.917-0.33-1.235c-0.168-0.325-0.359-0.535-0.582-0.646c-0.221-0.111-0.544-0.167-0.965-0.167v2.487   c0,0.488,0.02,0.786,0.062,0.898c0.044,0.104,0.119,0.196,0.23,0.261c0.115,0.073,0.296,0.105,0.547,0.105h0.531   c0.827,0,1.485-0.191,1.984-0.574c0.499-0.376,0.853-0.96,1.072-1.74h0.239L35.983,29.816z M49.81,21.222   c-0.167,0.014-0.306,0.058-0.42,0.138c-0.116,0.081-0.217,0.203-0.301,0.359c-0.025,0.049-0.16,0.388-0.413,1.011l-2.771,7.288   h-0.251l-2.189-5.695l-2.41,5.693h-0.243l-2.905-7.208c-0.292-0.73-0.5-1.168-0.617-1.316c-0.119-0.152-0.314-0.242-0.593-0.266   v-0.243h3.833v0.238c-0.311,0.009-0.517,0.058-0.617,0.145c-0.103,0.08-0.154,0.189-0.154,0.314c0,0.162,0.105,0.519,0.319,1.049   l1.733,4.289l1.389-3.352l-0.363-0.937c-0.198-0.514-0.354-0.853-0.458-1.025c-0.112-0.171-0.237-0.292-0.373-0.368   c-0.145-0.072-0.348-0.109-0.629-0.109v-0.243h4.282v0.238c-0.299,0.004-0.516,0.028-0.644,0.072   c-0.091,0.033-0.162,0.082-0.217,0.15c-0.048,0.072-0.075,0.152-0.075,0.242c0,0.101,0.096,0.407,0.292,0.926l1.608,4.184   l1.439-3.791c0.15-0.388,0.241-0.657,0.278-0.8c0.036-0.145,0.05-0.272,0.05-0.397c0-0.178-0.06-0.323-0.178-0.423   c-0.126-0.105-0.356-0.156-0.7-0.168v-0.236h2.288v0.238H49.81z M55.549,29.226c-0.575,0.53-1.31,0.799-2.192,0.799   c-0.275,0-0.536-0.028-0.789-0.086c-0.244-0.054-0.555-0.163-0.929-0.319c-0.205-0.087-0.378-0.131-0.518-0.131   c-0.114,0-0.232,0.044-0.354,0.131c-0.132,0.085-0.232,0.219-0.306,0.397h-0.244V26.68h0.244c0.188,0.939,0.552,1.656,1.104,2.149   c0.542,0.493,1.131,0.738,1.761,0.738c0.488,0,0.876-0.132,1.163-0.397c0.287-0.263,0.434-0.575,0.434-0.925   c0-0.21-0.055-0.411-0.164-0.607c-0.114-0.196-0.278-0.383-0.507-0.557c-0.224-0.177-0.625-0.406-1.2-0.688   c-0.803-0.393-1.38-0.729-1.733-1.01c-0.351-0.277-0.62-0.588-0.812-0.929c-0.188-0.343-0.281-0.722-0.281-1.133   c0-0.705,0.258-1.303,0.773-1.801c0.518-0.497,1.168-0.74,1.957-0.74c0.285,0,0.563,0.038,0.831,0.105   c0.205,0.049,0.451,0.147,0.743,0.292c0.292,0.138,0.502,0.21,0.62,0.21c0.114,0,0.201-0.039,0.27-0.105   c0.06-0.067,0.123-0.241,0.178-0.502h0.191l0.073,2.947h-0.265c-0.128-0.736-0.438-1.329-0.926-1.786   c-0.493-0.445-1.026-0.673-1.602-0.673c-0.442,0-0.796,0.119-1.049,0.353c-0.261,0.241-0.388,0.512-0.388,0.82   c0,0.196,0.045,0.367,0.137,0.526c0.125,0.208,0.328,0.404,0.604,0.604c0.203,0.145,0.677,0.401,1.412,0.767   c1.03,0.506,1.733,0.985,2.092,1.434c0.354,0.449,0.535,0.967,0.535,1.551C56.411,28.058,56.123,28.693,55.549,29.226z    M67.1,48.041h1.412v8.718v1.004h-1.508v3.316h-1.564v1.05v3.275H54.002v-2.814H52.72v-0.461v-3.029h-1.626v-2.341v-0.506h-1.458   v-1.721v-1.245h-1.569v-1.51h-1.277V51.43v-1.868v-0.201h2.414v0.201v1.115h1.573v0.753v3.106v0.751h1.651v-0.751V51.43v-1.868   v-3.771v-1.873v-3.767V38.28v-2.179h2.998v2.179v1.872v3.767v1.873v3.718h1.656v-3.718v-1.873v-0.311h2.591v0.311v1.873v3.771   v0.588h1.649v-0.588v-3.771v-0.618h2.297h0.237v6.021h1.653v-4.979h1.243v1.829L67.1,48.041L67.1,48.041z" fill="#2b3e50"/>
</g>
<g>
</g>
<g>
</g>
<g>
</g>
<g>
</g>
<g>
</g>
<g>
</g>
<g>
</g>
<g>
</g>
<g>
</g>
<g>
</g>
<g>
</g>
<g>
</g>
<g>
</g>
<g>
</g>
<g>
</g>
</svg>
